<svg xmlns="http://www.w3.org/2000/svg" width="2500" height="479" viewBox="0 0 2500 479">
  <path fill="#03363D" d="M1662.30727,413.126652 C1695.34692,413.814978 1727.69824,401.42511 1751.78965,378.710352 L1795.84251,426.204846 C1766.93282,456.491189 1726.32159,478.517621 1662.99559,478.517621 C1554.92841,478.517621 1485.40749,406.931718 1485.40749,309.877753 C1483.34251,218.330396 1556.30507,143.302863 1647.1641,141.237885 L1652.6707,141.237885 C1760.04956,141.237885 1820.62225,222.460352 1815.11564,336.034141 L1562.5,336.034141 C1571.44824,383.528634 1604.48789,413.814978 1662.30727,413.126652 M1739.39978,283.03304 C1732.51652,238.980176 1706.36013,206.628855 1654.04736,206.628855 C1605.17621,206.628855 1571.44824,234.161894 1562.5,283.03304 L1739.39978,283.03304 L1739.39978,283.03304 Z M0,409.685022 L194.796256,211.447137 L4.81828194,211.447137 L4.81828194,149.497797 L284.96696,149.497797 L284.96696,212.823789 L90.1707048,411.061674 L287.720264,411.061674 L287.720264,473.011013 L0,473.011013 L0,409.685022 Z M506.60793,413.126652 C539.647577,413.814978 571.998899,401.42511 595.401982,378.710352 L639.454846,426.204846 C610.545154,456.491189 569.933921,478.517621 506.60793,478.517621 C398.540749,478.517621 329.019824,406.931718 329.019824,309.877753 C326.954846,218.330396 399.917401,143.302863 490.776432,141.237885 L496.28304,141.237885 C603.661894,141.237885 664.234581,222.460352 658.727974,336.034141 L406.800661,336.034141 C415.748899,383.528634 448.788546,413.814978 506.60793,413.126652 M583.700441,283.03304 C576.817181,238.980176 550.660793,206.628855 498.348018,206.628855 C449.476872,206.628855 415.748899,234.161894 406.800661,283.03304 L583.700441,283.03304 Z M1080.67181,310.566079 C1080.67181,207.317181 1157.76432,142.614537 1243.11674,142.614537 C1284.4163,141.926211 1323.65088,159.822687 1351.18392,190.797357 L1351.18392,0.131057269 L1420.01652,0.131057269 L1420.01652,472.322687 L1351.18392,472.322687 L1351.18392,427.581498 C1324.33921,459.932819 1284.4163,479.205947 1242.42841,478.517621 C1159.8293,478.517621 1080.67181,413.126652 1080.67181,310.566079 M1354.62555,309.877753 C1353.2489,253.435022 1305.75441,208.693833 1249.31167,210.070485 C1192.86894,211.447137 1148.12775,258.94163 1149.50441,315.384361 C1150.88106,371.138767 1196.31057,415.19163 1252.06498,415.19163 C1311.26101,415.19163 1354.62555,368.385463 1354.62555,309.877753 M1860.54515,403.490088 L1923.18282,371.138767 C1939.70264,401.42511 1972.05396,419.321586 2006.47026,418.63326 C2045.70485,418.63326 2065.6663,398.671806 2065.6663,375.957048 C2065.6663,349.800661 2027.80837,344.294053 1987.19714,336.034141 C1932.13106,324.332599 1875,306.436123 1875,239.668502 C1875,188.732379 1923.87115,141.237885 2000.27533,141.926211 C2060.84802,141.926211 2105.58921,166.017621 2131.05727,204.563877 L2073.23789,236.226872 C2056.71806,212.135463 2029.18502,198.368943 2000.27533,199.057269 C1963.10573,199.057269 1944.52093,216.953744 1944.52093,237.603524 C1944.52093,261.006608 1974.11894,267.201542 2020.92511,277.526432 C2073.92621,289.227974 2134.4989,306.436123 2134.4989,373.89207 C2134.4989,418.63326 2095.26432,478.517621 2003.02863,477.829295 C1935.57269,478.517621 1888.07819,451.672907 1860.54515,403.490088 M2321.03524,328.462555 L2266.65749,388.346916 L2266.65749,472.322687 L2197.82489,472.322687 L2197.82489,0.131057269 L2266.65749,0.131057269 L2266.65749,309.189427 L2412.5826,148.809471 L2496.55837,148.809471 L2369.90639,287.162996 L2500,472.322687 L2422.21916,472.322687 L2321.03524,328.462555 Z M872.797357,141.926211 C790.886564,141.926211 722.053965,194.927313 722.053965,283.03304 L722.053965,472.322687 L792.263216,472.322687 L792.263216,291.981278 C792.263216,238.980176 822.549559,207.317181 874.862335,207.317181 C927.17511,207.317181 952.643172,238.980176 952.643172,291.981278 L952.643172,472.322687 L1022.1641,472.322687 L1022.1641,283.03304 C1022.85242,194.927313 954.019824,141.926211 872.797357,141.926211"/>
</svg>
