<svg xmlns="http://www.w3.org/2000/svg" width="544" height="125" viewBox="0 0 544 125">
  <g fill="none" fill-rule="evenodd">
    <g transform="translate(0 24)">
      <path fill="#7DBF6D" d="M76.312,24.791 L71.529,6.735 C71.368,6.126 70.894,5.652 70.286,5.488 L52.229,0.703 C51.623,0.545 50.983,0.716 50.541,1.158 L38.437,13.262 L63.76,38.581 L75.857,26.477 C76.301,26.038 76.473,25.394 76.312,24.791"/>
      <path fill="#F3CB31" d="M0.561,52.373 L5.347,70.425 C5.508,71.032 5.985,71.507 6.59,71.668 L24.65,76.459 C25.252,76.617 25.893,76.445 26.335,76.003 L38.442,63.896 L13.123,38.575 L1.014,50.685 C0.575,51.127 0.4,51.771 0.561,52.373"/>
      <path fill="#C0D03A" d="M24.645,0.697 L6.588,5.485 C5.98,5.646 5.505,6.12 5.344,6.729 L0.559,24.783 C0.398,25.385 0.572,26.029 1.014,26.468 L13.124,38.575 L38.437,13.262 L26.332,1.152 C25.891,0.71 25.247,0.536 24.645,0.697"/>
      <path fill="#AF7AA8" d="M75.692,50.513 L63.762,38.581 L38.441,63.896 L50.374,75.832 C50.922,76.38 51.721,76.595 52.47,76.396 L70.05,71.736 C70.805,71.534 71.394,70.945 71.594,70.19 L76.256,52.61 C76.455,51.86 76.24,51.061 75.692,50.513"/>
      <polyline fill="#692A6B" points="38.438 13.262 13.125 38.575 38.44 63.896 63.761 38.58 38.438 13.262"/>
    </g>
    <path fill="#692A6B" d="M126.117 94.315L108.133 40.327C107.964 39.814 107.487 39.468 106.95 39.468L102.745 39.468C101.78 39.468 101 38.694 101 37.731L101 31.189C101 30.227 101.78 29.447 102.745 29.447L130.079 29.447C131.044 29.447 131.818 30.227 131.818 31.189L131.818 37.731C131.818 38.694 131.044 39.473 130.079 39.473L126.618 39.468C125.768 39.468 125.176 40.332 125.443 41.139 125.443 41.139 132.173 61.348 134.665 68.871 135.009 69.91 136.582 69.946 136.994 68.879 141.013 58.43 151.776 30.576 151.776 30.576 152.005 30.014 152.556 29.447 153.376 29.447L161.494 29.447C162.078 29.447 162.781 29.935 163.032 30.625 163.032 30.625 176.339 67.355 176.887 68.852 177.331 70.063 178.913 69.812 179.237 68.847 179.559 67.884 188.52 41.104 188.52 41.104 188.789 40.297 188.217 39.468 187.366 39.468L183.483 39.468C182.518 39.468 181.735 38.694 181.735 37.731L181.735 31.189C181.735 30.227 182.515 29.447 183.478 29.447L208.349 29.447C209.587 29.447 210.361 30.685 210.034 31.65 209.385 33.551 208.458 36.201 207.782 38.265 207.569 38.92 206.966 39.468 206.121 39.468L202.113 39.468C201.578 39.468 201.101 39.811 200.932 40.319L182.6 94.326C182.362 95.037 181.697 95.517 180.944 95.517L171.21 95.517C170.476 95.517 169.819 95.057 169.571 94.367 169.571 94.367 155.765 56.284 155.307 55.022 154.898 53.901 153.355 53.955 152.962 54.978 152.37 56.511 137.697 94.402 137.697 94.402 137.436 95.076 136.792 95.517 136.072 95.517L127.775 95.517C127.022 95.517 126.351 95.032 126.117 94.315M245.404 80.883C245.404 81.259 244.769 81.859 244.477 82.096 242.759 83.514 241.074 84.594 239.422 85.331 237.616 86.138 235.877 86.307 234.194 86.307 231.607 86.307 229.024 85.369 227.304 83.482 225.578 81.598 224.716 79.261 224.716 76.466 224.716 72.58 226.21 69.965 229.128 68.04 232.043 66.115 236.798 65.188 242.593 65.188L245.404 65.188 245.404 80.883zM267.502 85.652C263.837 85.819 262.057 84.098 262.057 79.948L262.057 50.136C262.057 37.042 251.101 28.777 238.773 28.777 219.652 28.777 212.737 37.838 211.96 47.971 211.881 48.982 212.696 49.844 213.711 49.844L223.11 49.844C224.023 49.844 224.76 49.14 224.85 48.232 225.368 42.937 228.872 39.092 234.841 39.092 241.431 39.092 245.402 42.38 245.402 49.931L245.402 56.396 242.001 56.396C230.276 56.396 222.115 57.899 216.664 61.337 211.213 64.773 208.483 71.031 208.483 78.413 208.483 83.836 210.359 88.322 214.103 91.88 217.85 95.431 222.177 96.974 227.947 96.974 231.318 96.974 234.62 96.23 237.859 94.738 240.687 93.432 243.457 91.79 246.179 89.347 246.781 88.807 247.706 88.957 248.115 89.658 250.82 94.326 253.694 95.88 259.322 95.88 264.366 95.88 266.81 91.139 268.994 88.335 269.776 87.332 268.885 85.592 267.502 85.652L267.502 85.652z"/>
    <path fill="#692A6B" d="M367.145.195C359.636.195 354.692 2.567 350.935 7.105 347.182 11.647 345.306 16.681 345.306 25.764L345.306 28.194C345.306 29.031 344.595 29.445 344.096 29.445L318.638 29.445C317.673 29.448 316.893 30.228 316.893 31.19L316.893 37.724C316.893 38.689 317.673 39.469 318.638 39.469L319.999 39.469C320.907 39.469 321.471 40.41 321.161 41.181 321.161 41.181 311.884 62.699 308.176 71.294 307.764 72.248 306.335 72.267 305.91 71.294 302.106 62.581 292.788 41.209 292.788 41.209 292.434 40.388 293.036 39.472 293.931 39.472L298.045 39.472C299.011 39.472 299.791 38.689 299.791 37.727L299.791 31.185C299.791 30.222 299.011 29.445 298.045 29.445L264.489 29.443C263.12 29.443 262.362 30.918 262.949 32.009 263.827 33.634 265.88 37.454 266.472 38.55 266.646 38.875 267.173 39.469 267.939 39.469L272.951 39.469C273.433 39.469 273.878 39.747 274.08 40.186 274.08 40.186 298.105 91.644 298.872 93.272 299.022 93.599 298.937 94.052 298.768 94.471 298.531 95.071 294.122 104.015 294.122 104.015 291.736 109.114 289.044 113.494 283.891 113.513 280.539 113.521 277.96 111.02 276.733 110.011 276.106 109.496 275.026 109.496 274.401 110.172 273.504 111.14 270.903 113.818 269.52 115.247 269.016 115.77 268.871 116.913 269.553 117.589 272.348 120.371 276.918 124.09 283.555 124.346 291.73 124.663 298.517 120.414 302.436 111.569 302.436 111.569 330.854 48.74 334.685 40.154 334.909 39.654 335.468 39.469 335.784 39.469 337.581 39.469 343.809 39.483 343.809 39.483 344.497 39.483 345.056 40.042 345.056 40.729L345.056 84.328C345.056 84.614 344.979 85.007 344.745 85.301 343.267 87.15 340.338 90.831 338.871 92.685 337.963 93.831 338.743 95.521 340.229 95.521L367.669 95.521C368.637 95.521 369.414 94.741 369.414 93.776L369.414 87.319C369.414 86.356 368.634 85.574 367.672 85.574L362.941 85.574C362.254 85.574 361.703 85.018 361.703 84.328L361.703 40.715C361.703 40.028 362.254 39.469 362.941 39.469L371.377 39.469C371.887 39.469 372.414 39.251 372.752 38.806 374.001 37.162 376.447 33.961 377.755 32.246 378.614 31.122 377.837 29.445 376.367 29.445L362.728 29.445C362.041 29.445 361.485 28.889 361.485 28.199L361.485 18.511C361.485 13.791 363.898 9.109 368.951 9.109 374.622 9.109 375.528 13.862 375.773 17.565 375.841 18.56 376.676 19.239 377.507 19.239L385.589 19.239C386.53 19.239 387.242 18.317 387.242 17.518 387.242 5.343 379.52.195 367.145.195M524.837 29.446C523.967 28.985 521.783 28.775 519.912 28.775 512.386 28.775 508.765 31.12 504.015 37.85 503.32 38.834 501.757 38.297 501.757 37.092L501.757 31.191C501.757 30.226 500.975 29.446 500.012 29.446L487.477 29.446C487.021 29.446 486.555 29.623 486.187 30.065 486.187 30.065 482.258 34.981 480.965 36.631 480.199 37.61 480.665 39.475 482.34 39.475 482.869 39.475 483.905 39.469 483.905 39.469 484.57 39.469 485.151 40.018 485.151 40.716L485.151 84.328C485.151 84.579 485.08 85.029 484.862 85.299 483.638 86.815 480.499 90.763 478.966 92.694 478.075 93.818 478.89 95.522 480.305 95.522L507.293 95.522C508.255 95.522 509.038 94.739 509.038 93.777L509.038 87.314C509.038 86.351 508.255 85.569 507.293 85.569L503.001 85.569C502.313 85.569 501.757 85.013 501.757 84.323L501.757 51.718C501.757 51.484 501.855 51.08 501.934 50.93 504.868 45.387 511.503 41.55 516.427 41.55 520.556 41.55 522.077 42.166 524.316 42.739 525.249 42.979 526.058 41.959 526.058 40.994L526.056 31.117C526.056 30.357 525.442 29.768 524.837 29.446M472.271 85.574L468.006 85.574C467.319 85.574 466.76 85.015 466.76 84.328L466.76 31.166C466.76 30.204 465.961 29.446 464.999 29.446L452.504 29.446C451.986 29.446 451.463 29.68 451.117 30.133 450.476 30.962 447.242 35.022 445.947 36.631 445.03 37.768 445.846 39.469 447.266 39.469L448.916 39.469C449.6 39.469 450.121 40.124 450.121 40.716L450.121 84.304C450.121 84.702 449.917 85.157 449.821 85.277 448.42 87.052 445.442 90.788 443.967 92.642 442.982 93.877 443.844 95.522 445.292 95.522L450.078 95.497 458.326 95.497 467.167 95.522C467.665 95.522 468.107 95.336 468.377 94.995 469.683 93.343 472.197 90.191 473.498 88.56 474.553 87.235 473.741 85.574 472.271 85.574M414.918 80.883C414.918 81.259 414.28 81.859 413.991 82.096 412.271 83.514 410.588 84.594 408.936 85.331 407.13 86.138 405.388 86.307 403.708 86.307 401.121 86.307 398.538 85.369 396.815 83.482 395.092 81.598 394.23 79.261 394.23 76.466 394.23 72.58 395.722 69.965 398.642 68.04 401.557 66.115 406.312 65.188 412.107 65.188L414.918 65.188 414.918 80.883zM437.014 85.652C433.351 85.819 431.571 84.098 431.571 79.948L431.571 50.136C431.571 37.042 420.615 28.777 408.287 28.777 389.166 28.777 382.248 37.838 381.474 47.971 381.395 48.982 382.21 49.844 383.225 49.844L392.624 49.844C393.535 49.844 394.274 49.14 394.361 48.232 394.882 42.937 398.386 39.092 404.355 39.092 410.945 39.092 414.916 42.38 414.916 49.931L414.916 56.396 411.515 56.396C399.79 56.396 391.626 57.899 386.178 61.337 380.727 64.773 377.997 71.031 377.997 78.413 377.997 83.836 379.871 88.322 383.617 91.88 387.364 95.431 391.691 96.974 397.461 96.974 400.829 96.974 404.134 96.23 407.37 94.738 410.201 93.432 412.971 91.79 415.693 89.347 416.295 88.807 417.22 88.957 417.626 89.658 420.334 94.326 423.208 95.88 428.836 95.88 433.88 95.88 436.324 91.139 438.508 88.335 439.29 87.332 438.399 85.592 437.014 85.652L437.014 85.652zM537.241 33.893L537.241 36.034 538.607 36.034C539.305 36.034 539.564 35.499 539.564 34.967 539.564 34.441 539.305 33.893 538.637 33.893L537.241 33.893zM540.398 38.908L539.458 38.908 537.972 36.759 537.241 36.759 537.241 38.908 536.455 38.908 536.455 33.168 538.664 33.168C539.872 33.168 540.363 34.068 540.363 34.967 540.363 35.818 539.938 36.642 538.863 36.732L540.398 38.908 540.398 38.908z"/>
    <path fill="#692A6B" d="M538.189,31.079 C535.449,31.079 533.226,33.301 533.226,36.042 C533.226,38.782 535.449,41.005 538.189,41.005 C540.93,41.005 543.149,38.782 543.149,36.042 C543.149,33.301 540.93,31.079 538.189,31.079 M538.189,31.802 C540.526,31.802 542.427,33.705 542.427,36.042 C542.427,38.379 540.526,40.282 538.189,40.282 C535.852,40.282 533.949,38.379 533.949,36.042 C533.949,33.705 535.852,31.802 538.189,31.802"/>
  </g>
</svg>
