<?xml version="1.0" encoding="UTF-8"?>
<svg width="90px" height="63px" viewBox="0 0 90 63" version="1.1" xmlns="http://www.w3.org/2000/svg" xmlns:xlink="http://www.w3.org/1999/xlink">
    <!-- Generator: Sketch 61.2 (89653) - https://sketch.com -->
    <title>np_golden-gate-bridge_1371066_000000</title>
    <desc>Created with Sketch.</desc>
    <g id="Page-1" stroke="none" stroke-width="1" fill="none" fill-rule="evenodd">
        <g id="np_golden-gate-bridge_1371066_000000" fill="#D0021B" fill-rule="nonzero">
            <path d="M88.461,52.691 C66.973,52.691 60.012,16.289 58.676,7.761 L58.676,6.0696 C58.676,4.8704 57.69944,3.8899 56.4963,3.8899 L56.398644,3.893806 L56.398644,1.905506 C56.398644,1.319566 55.922084,0.843006 55.277544,0.843006 C54.691604,0.843006 54.215044,1.319566 54.215044,1.905506 L54.215044,3.893806 L54.117388,3.893806 C53.277548,3.893806 52.558788,4.374276 52.195488,5.073506 L39.476488,5.069599 C39.113208,4.374289 38.390588,3.889899 37.554588,3.889899 L37.456931,3.889899 L37.456931,1.901599 C37.456931,1.315659 36.980371,0.839099 36.335831,0.839099 C35.749891,0.839099 35.273331,1.315659 35.273331,1.901599 L35.273331,3.889899 L35.175674,3.889899 C33.976474,3.889899 32.995974,4.866459 32.995974,6.069599 L32.995974,7.760999 C31.660074,16.292199 24.706874,52.686999 3.210974,52.686999 L1.238274,52.690905 C0.824214,52.690905 0.488274,53.026845 0.488274,53.440905 C0.488274,53.854965 0.824214,54.190905 1.238274,54.190905 L3.210974,54.190905 C4.570374,54.190905 5.898474,54.050285 7.195374,53.780745 L7.195374,61.729945 C7.195374,62.144005 7.531314,62.479945 7.945374,62.479945 C8.359434,62.479945 8.695374,62.144005 8.695374,61.729945 L8.695374,53.394045 C9.800874,53.069825 10.875074,52.632325 11.929774,52.104945 L11.929774,61.729945 C11.929774,62.144005 12.265714,62.479945 12.679774,62.479945 C13.093834,62.479945 13.429774,62.144005 13.429774,61.729945 L13.43368,51.276945 C14.54308,50.605065 15.62118,49.823845 16.66808,48.925345 L16.66808,61.730345 C16.66808,62.144405 17.00402,62.480345 17.41808,62.480345 C17.83214,62.480345 18.16808,62.144405 18.16808,61.730345 L18.16808,47.542345 C19.28918,46.432945 20.36728,45.182945 21.40248,43.800145 L21.40248,61.726145 C21.40248,62.140205 21.73842,62.476145 22.15248,62.476145 C22.56654,62.476145 22.90248,62.140205 22.90248,61.726145 L22.906386,41.664145 C24.039186,39.941445 25.121186,38.054745 26.140786,35.984445 L26.140786,61.726445 C26.140786,62.140505 26.476726,62.476445 26.890786,62.476445 C27.304846,62.476445 27.640786,62.140505 27.640786,61.726445 L27.640786,32.734445 C28.015786,31.855535 28.382976,30.957145 28.742386,30.027445 C30.679886,24.980545 32.054886,19.910445 32.996286,15.742445 L32.996286,19.527645 C32.293166,19.890925 31.812686,20.625345 31.812686,21.469045 L31.812686,37.289045 C31.109566,37.652325 30.629086,38.386745 30.629086,39.230445 L30.629086,61.726445 C30.629086,62.281135 31.078306,62.726445 31.629086,62.726445 C32.179866,62.726445 32.629086,62.281135 32.629086,61.726445 L32.629086,39.230445 C32.629086,39.128885 32.711118,39.046855 32.812676,39.046855 C33.363456,39.046855 33.812676,38.601545 33.812676,38.046855 L33.812676,21.472855 C33.812676,21.371295 33.894707,21.289265 33.996266,21.289265 C34.547046,21.289265 34.996266,20.840045 34.996266,20.289265 L34.996266,6.074265 C34.996266,5.976608 35.074391,5.894575 35.175956,5.894575 L37.554856,5.894575 C37.652512,5.894575 37.734546,5.9727 37.734546,6.074265 L37.734546,20.285265 C37.734546,20.836045 38.183766,21.285265 38.734546,21.285265 C38.836106,21.285265 38.918136,21.367297 38.918136,21.468855 L38.918136,38.046855 C38.918136,38.601545 39.367356,39.046855 39.918136,39.046855 C40.019696,39.046855 40.101726,39.128886 40.101726,39.230445 L40.101726,61.726445 C40.101726,62.281135 40.550946,62.726445 41.101726,62.726445 C41.652506,62.726445 42.101726,62.281135 42.101726,61.726445 L42.101726,45.164445 C42.101726,45.058975 42.187664,44.969135 42.297036,44.969135 L49.379036,44.969135 C49.484506,44.969135 49.574346,45.055073 49.574346,45.164445 L49.574346,61.730445 C49.574346,62.285135 50.019656,62.730445 50.574346,62.730445 C51.129036,62.730445 51.574346,62.285135 51.574346,61.730445 L51.570439,51.074445 L51.570439,39.234445 C51.570439,39.132885 51.652471,39.050855 51.754029,39.050855 C52.308719,39.050855 52.754029,38.605545 52.754029,38.050855 L52.754029,36.867255 L52.757935,27.351655 L52.757935,21.472755 C52.757935,21.371195 52.839967,21.289165 52.941525,21.289165 C53.496215,21.289165 53.941525,20.839945 53.941525,20.289165 L53.941525,6.078165 C53.941525,5.980509 54.01965,5.898475 54.121215,5.898475 L56.504015,5.898475 C56.601671,5.898475 56.683705,5.976599 56.683705,6.078165 L56.683705,20.293165 C56.683705,20.843945 57.129015,21.293165 57.683705,21.293165 C57.785265,21.293165 57.867295,21.375196 57.867295,21.476755 L57.867295,38.054755 C57.867295,38.609445 58.312605,39.054755 58.867295,39.054755 C58.968855,39.054755 59.050885,39.136786 59.050885,39.238345 L59.050885,61.734345 C59.050885,62.289035 59.496195,62.734345 60.050885,62.734345 C60.605575,62.734345 61.050885,62.289035 61.050885,61.734345 L61.046979,39.230345 C61.046979,38.386595 60.566509,37.652245 59.863379,37.288945 L59.863379,21.472945 C59.863379,20.629195 59.382909,19.894845 58.679779,19.531545 L58.679779,15.746345 C59.621189,19.910445 60.992279,24.984645 62.933679,30.027345 C63.289149,30.957035 63.660239,31.855445 64.035279,32.734345 L64.035279,61.726345 C64.035279,62.140405 64.371219,62.476345 64.785279,62.476345 C65.199339,62.476345 65.535279,62.140405 65.535279,61.726345 L65.531373,35.988345 C66.550873,38.054745 67.632973,39.941445 68.765773,41.668045 L68.765773,61.730045 C68.765773,62.144105 69.101713,62.480045 69.515773,62.480045 C69.929833,62.480045 70.265773,62.144105 70.265773,61.730045 L70.269679,43.804045 C71.308779,45.186845 72.386879,46.432945 73.504079,47.542345 L73.504079,61.730345 C73.504079,62.144405 73.840019,62.480345 74.254079,62.480345 C74.668139,62.480345 75.004079,62.144405 75.004079,61.730345 L75.004079,48.925345 C76.050979,49.823785 77.132979,50.605045 78.238479,51.276945 L78.238479,61.729945 C78.238479,62.144005 78.574419,62.479945 78.988479,62.479945 C79.402539,62.479945 79.738479,62.144005 79.738479,61.729945 L79.738479,52.104945 C80.793179,52.632285 81.871279,53.069785 82.972879,53.394045 L82.972879,61.729945 C82.972879,62.144005 83.308819,62.479945 83.722879,62.479945 C84.136939,62.479945 84.472879,62.144005 84.472879,61.729945 L84.472879,53.780745 C85.769779,54.050275 87.101779,54.190905 88.457279,54.190905 C88.871339,54.190905 89.2073127,53.854965 89.2073127,53.440905 C89.211186,53.026845 88.875249,52.690905 88.461189,52.690905 L88.461,52.691 Z M36.336,1.843 L36.45709,1.9055 L36.45709,3.8938 L36.29303,3.8938 L36.336,1.843 Z M47.742,42.968 L46.3006,42.968 C46.324038,42.909406 46.335757,42.85081 46.335757,42.78441 L46.335757,40.41721 C46.335757,40.350803 46.320131,40.2883 46.3006,40.23362 L47.742,40.23362 C47.718562,40.292214 47.706843,40.35081 47.706843,40.41721 L47.706843,42.78441 C47.702937,42.850816 47.718562,42.90941 47.742,42.968 Z M43.9295,40.2297 L45.3709,40.2297 C45.347462,40.288293 45.335744,40.34689 45.335744,40.41329 L45.335744,42.78049 C45.335744,42.846896 45.351368,42.9094 45.3709,42.96408 L43.9295,42.96408 C43.952937,42.905486 43.964656,42.84689 43.964656,42.78049 L43.964656,40.41329 C43.968562,40.35079 43.952937,40.28829 43.9295,40.2297 Z M41.8397,38.2297 C41.62876,37.83126 41.31626,37.49532 40.91782,37.28829 L40.91782,36.86251 L40.913913,27.35081 C40.913913,27.272686 40.976413,27.21019 41.054543,27.21019 L50.613143,27.21019 C50.691268,27.21019 50.753763,27.27269 50.753763,27.35081 L50.753763,37.29221 C50.355323,37.49924 50.038923,37.83518 49.831883,38.23362 L41.839683,38.23362 L41.8397,38.2297 Z M39.7303,7.0737 L40.63655,7.0737 C40.613112,7.132293 40.597487,7.19479 40.597487,7.26511 L40.597487,9.63231 C40.597487,9.698717 40.613112,9.76122 40.632643,9.8159 L39.835773,9.8159 C39.800616,9.8159 39.76546,9.823713 39.730303,9.827619 L39.734209,7.0737 L39.7303,7.0737 Z M50.1093,9.8159 L48.6679,9.8159 C48.691337,9.757306 48.703056,9.69871 48.703056,9.63231 L48.703056,7.26511 C48.703056,7.198704 48.687431,7.1323 48.663993,7.0737 L50.1093,7.0737 C50.085856,7.132293 50.07023,7.19479 50.07023,7.26511 L50.07023,9.63231 C50.07023,9.69481 50.085856,9.75731 50.1093,9.8159 L50.1093,9.8159 Z M51.9413,17.9214 L51.9413,19.5308 C51.54286,19.73783 51.22646,20.07377 51.01942,20.47221 L40.65642,20.47221 C40.44548,20.07377 40.13298,19.73783 39.73454,19.5308 L39.730634,17.9214 L39.730634,11.9253 C39.730634,11.866707 39.777509,11.81983 39.836104,11.81983 L51.832104,11.81983 C51.890698,11.81983 51.937574,11.866706 51.937574,11.9253 L51.9413,17.9214 Z M41.5623,22.4722 L43.0037,22.4722 C42.980263,22.530794 42.968544,22.58939 42.968544,22.65579 L42.968544,25.02299 C42.968544,25.089396 42.984169,25.1519 43.0037,25.20658 L41.5623,25.20658 C41.585738,25.147987 41.597456,25.08939 41.597456,25.02299 L41.597456,22.65579 C41.601362,22.589384 41.585738,22.52688 41.5623,22.4722 Z M43.9295,22.4722 L45.3709,22.4722 C45.347462,22.530794 45.335744,22.58939 45.335744,22.65579 L45.335744,25.02299 C45.335744,25.089396 45.351368,25.1519 45.3709,25.20658 L43.9295,25.20658 C43.952937,25.147987 43.964656,25.08939 43.964656,25.02299 L43.964656,22.65579 C43.968562,22.589384 43.952937,22.52688 43.9295,22.4722 Z M46.3006,22.4722 L47.742,22.4722 C47.718562,22.530794 47.706843,22.58939 47.706843,22.65579 L47.706843,25.02299 C47.706843,25.089396 47.722468,25.1519 47.742,25.20658 L46.3006,25.20658 C46.324038,25.147987 46.335757,25.08939 46.335757,25.02299 L46.335757,22.65579 C46.335757,22.589384 46.320131,22.52688 46.3006,22.4722 Z M48.6678,22.4722 L50.1092,22.4722 C50.085763,22.530794 50.074044,22.58939 50.074044,22.65579 L50.074044,25.02299 C50.074044,25.089396 50.089669,25.1519 50.1092,25.20658 L48.6678,25.20658 C48.691237,25.147987 48.702956,25.08939 48.702956,25.02299 L48.702956,22.65579 C48.702956,22.589384 48.691237,22.52688 48.6678,22.4722 Z M47.74202,9.8162 L46.30062,9.8162 C46.324058,9.757606 46.335777,9.69901 46.335777,9.63261 L46.335777,7.26541 C46.335777,7.199004 46.320151,7.1326 46.296714,7.074 L47.74202,7.074 C47.718576,7.132593 47.702951,7.19509 47.702951,7.26541 L47.702951,9.63261 C47.702951,9.69511 47.718576,9.75761 47.74202,9.8162 L47.74202,9.8162 Z M45.37482,9.8162 L43.93342,9.8162 C43.956857,9.757606 43.968576,9.69901 43.968576,9.63261 L43.968576,7.26541 C43.968576,7.199004 43.952951,7.1326 43.929514,7.074 L45.37482,7.074 C45.351376,7.132593 45.335752,7.19509 45.335752,7.26541 L45.335752,9.63261 C45.335752,9.69511 45.351376,9.75761 45.37482,9.8162 L45.37482,9.8162 Z M43.00372,9.8162 L41.56232,9.8162 C41.585758,9.757606 41.597476,9.69901 41.597476,9.63261 L41.597476,7.26541 C41.597476,7.199004 41.581851,7.1326 41.558414,7.074 L43.00372,7.074 C42.980277,7.132593 42.964652,7.19509 42.964652,7.26541 L42.964652,9.63261 C42.968558,9.69511 42.984183,9.75761 43.00372,9.8162 L43.00372,9.8162 Z M51.83572,9.8162 L51.03494,9.8162 C51.058378,9.757606 51.070096,9.69901 51.070096,9.63261 L51.070096,7.26541 C51.070096,7.199004 51.054472,7.1326 51.031034,7.074 L51.937284,7.074 L51.937284,9.8279 C51.902128,9.823994 51.870878,9.816181 51.835724,9.816181 L51.83572,9.8162 Z M42.10132,42.988217 L42.10132,40.2304 L43.00757,40.2304 C42.984133,40.288993 42.972414,40.34759 42.972414,40.41399 L42.972414,42.78119 C42.972414,42.847596 42.988039,42.9101 43.00757,42.96478 L42.29663,42.96478 C42.226317,42.968686 42.16382,42.984311 42.10132,42.988217 L42.10132,42.988217 Z M49.37862,42.968669 L48.66768,42.968669 C48.691117,42.910075 48.702836,42.851479 48.702836,42.785079 L48.702836,40.417879 C48.702836,40.351472 48.687211,40.288969 48.66768,40.234289 L49.57393,40.234289 L49.57393,42.992089 C49.507523,42.984276 49.44502,42.968651 49.37862,42.968651 L49.37862,42.968669 Z M55.27702,1.843669 L55.39811,1.906169 L55.39811,3.894469 L55.23405,3.894469 L55.27702,1.843669 Z" id="Shape"></path>
            <path d="M33.996,44.652 C33.71866,44.652 33.496,44.87466 33.496,45.152 L33.496,56.992 C33.496,57.26934 33.71866,57.492 33.996,57.492 C34.27334,57.492 34.496,57.26934 34.496,56.992 L34.496,45.152 C34.496,44.87466 34.27334,44.652 33.996,44.652 Z" id="Path"></path>
            <path d="M36.363,29.262 C36.08566,29.262 35.863,29.48466 35.863,29.762 L35.863,58.18 C35.863,58.45734 36.08566,58.68 36.363,58.68 C36.64034,58.68 36.863,58.45734 36.863,58.18 L36.863,29.762 C36.863,29.48466 36.64034,29.262 36.363,29.262 L36.363,29.262 Z" id="Path"></path>
            <path d="M38.73,44.652 C38.45266,44.652 38.23,44.87466 38.23,45.152 L38.23,56.992 C38.23,57.26934 38.45266,57.492 38.73,57.492 C39.00734,57.492 39.23,57.26934 39.23,56.992 L39.23,45.152 C39.23,44.87466 39.00734,44.652 38.73,44.652 Z" id="Path"></path>
            <path d="M52.941,44.652 C52.66366,44.652 52.441,44.87466 52.441,45.152 L52.441,56.992 C52.441,57.26934 52.66366,57.492 52.941,57.492 C53.21834,57.492 53.441,57.26934 53.441,56.992 L53.441,45.152 C53.441,44.87466 53.21834,44.652 52.941,44.652 Z" id="Path"></path>
            <path d="M55.309,29.262 C55.03166,29.262 54.809,29.48466 54.809,29.762 L54.809,58.18 C54.809,58.45734 55.03166,58.68 55.309,58.68 C55.58634,58.68 55.809,58.45734 55.809,58.18 L55.809,29.762 C55.809,29.48466 55.58634,29.262 55.309,29.262 L55.309,29.262 Z" id="Path"></path>
            <path d="M57.676,44.652 C57.39866,44.652 57.176,44.87466 57.176,45.152 L57.176,56.992 C57.176,57.26934 57.39866,57.492 57.676,57.492 C57.95334,57.492 58.176,57.26934 58.176,56.992 L58.176,45.152 C58.176,44.87466 57.95334,44.652 57.676,44.652 Z" id="Path"></path>
        </g>
    </g>
</svg>