<?xml version="1.0" encoding="UTF-8"?>
<svg width="80px" height="92px" viewBox="0 0 80 92" version="1.1" xmlns="http://www.w3.org/2000/svg" xmlns:xlink="http://www.w3.org/1999/xlink">
    <!-- Generator: Sketch 61.2 (89653) - https://sketch.com -->
    <title>np_online_1274693_D11F0C</title>
    <desc>Created with Sketch.</desc>
    <g id="Page-1" stroke="none" stroke-width="1" fill="none" fill-rule="evenodd">
        <g id="np_online_1274693_D11F0C" fill="#D11F0C" fill-rule="nonzero">
            <path d="M74.77,77.891 L5.231,77.891 C2.8872,77.891 0.9849,75.9848 0.9849,73.6449 L0.9849,61.5859 C0.9849,61.05465 1.41459,60.62496 1.94584,60.62496 L78.05484,60.62496 C78.58609,60.62496 79.01578,61.05465 79.01578,61.5859 L79.01578,73.6449 C79.01578,75.9847 77.10958,77.891 74.76968,77.891 L74.77,77.891 Z M2.907,62.547 L2.907,73.645 C2.907,74.9262 3.95,75.9692 5.2312,75.9692 L74.7702,75.9692 C76.0514,75.9692 77.0944,74.9262 77.0944,73.645 L77.0944,62.547 L2.907,62.547 Z" id="Shape"></path>
            <path d="M56.84,91.191 L23.164,91.191 C22.789,91.191 22.44916,90.97225 22.29291,90.63241 C22.13666,90.29257 22.19135,89.89413 22.42963,89.60901 L27.12883,84.04261 L27.12883,76.92931 C27.12883,76.39806 27.55852,75.96837 28.08977,75.96837 L51.90977,75.96837 C52.44102,75.96837 52.87071,76.39806 52.87071,76.92931 L52.87071,84.04261 L57.56991,89.60901 C57.8121,89.89417 57.86679,90.29651 57.70663,90.63241 C57.55429,90.97616 57.21054,91.191 56.83944,91.191 L56.84,91.191 Z M25.235,89.2691 L54.77,89.2691 L51.1802,85.0152 C51.03176,84.84332 50.95364,84.62067 50.95364,84.39411 L50.95364,77.89021 L29.05164,77.89021 L29.05164,84.39411 C29.05164,84.62067 28.969609,84.83942 28.82508,85.0152 L25.235,89.2691 Z" id="Shape"></path>
            <path d="M40,47.684 C27.078,47.684 16.562,37.168 16.562,24.246 C16.562,17.8749 19.0854,11.914 23.6636,7.457 C24.0386,7.09372 24.63235,7.09372 25.0034,7.457 C29.0503,11.3906 34.3745,13.5586 39.9994,13.5586 C45.6243,13.5586 50.9484,11.3906 54.9914,7.457 C55.3664,7.09372 55.96015,7.09372 56.3312,7.457 C60.9132,11.914 63.4367,17.875 63.4367,24.246 C63.4367,37.168 52.9247,47.684 39.9987,47.684 L40,47.684 Z M24.363,9.489 C20.5661,13.5007 18.4841,18.7038 18.4841,24.247 C18.4841,36.11 28.1364,45.763 40.0001,45.763 C51.8638,45.763 61.5161,36.1107 61.5161,24.247 C61.5161,18.704 59.4341,13.497 55.6372,9.489 C51.3286,13.3601 45.813,15.4812 40.0002,15.4812 C34.1916,15.4812 28.6762,13.3601 24.3632,9.489 L24.363,9.489 Z" id="Shape"></path>
            <path d="M78.055,62.547 L1.946,62.547 C1.41475,62.547 0.98506,62.11731 0.98506,61.58606 L0.98506,26.80106 C0.98506,24.46126 2.89126,22.55496 5.23116,22.55496 L17.56316,22.55496 C17.82488,22.55496 18.07488,22.66043 18.25457,22.84793 C18.43426,23.03543 18.53191,23.28934 18.5241,23.55105 L18.504568,23.89089 C18.496756,24.00417 18.485037,24.12527 18.485037,24.24636 C18.485037,36.10936 28.137337,45.76236 40.001037,45.76236 C51.864737,45.76236 61.517037,36.11006 61.517037,24.24636 C61.517037,24.12917 61.509224,24.01198 61.501412,23.8948 L61.481881,23.54324 C61.474068,23.28152 61.571724,23.03152 61.751411,22.84402 C61.931098,22.65652 62.181101,22.55105 62.442821,22.55105 L74.774821,22.55105 C77.114621,22.55105 79.020921,24.45725 79.020921,26.79715 L79.020921,61.58215 C79.017015,62.11731 78.587331,62.547 78.056081,62.547 L78.055,62.547 Z M2.9066,60.6251 L77.095,60.6251 L77.095,26.8011 C77.095,25.5199 76.052,24.4769 74.7708,24.4769 L63.4388,24.4769 C63.3138,37.2929 52.8488,47.6839 40.0008,47.6839 C27.1528,47.6839 16.6888,37.2929 16.5628,24.4769 L5.2308,24.4769 C3.9496,24.4769 2.9066,25.5199 2.9066,26.8011 L2.9066,60.6251 Z" id="Shape"></path>
            <path d="M40,15.48 C33.8711,15.48 28.07,13.1206 23.664,8.8316 C23.4765,8.65191 23.37103,8.40191 23.37103,8.1441 C23.37103,7.88629 23.4765,7.63629 23.664,7.4566 C28.0702,3.1675 33.871,0.8082 40,0.8082 C46.129,0.8082 51.93,3.1676 56.336,7.4566 C56.5235,7.63629 56.62897,7.88629 56.62897,8.1441 C56.62897,8.40191 56.5235,8.65191 56.336,8.8316 C51.9298,13.1207 46.129,15.48 40,15.48 Z M25.746,8.1441 C29.6913,11.6441 34.7148,13.5582 40,13.5582 C45.2891,13.5582 50.309,11.6441 54.254,8.1441 C50.3087,4.6441 45.2892,2.73 40,2.73 C34.7148,2.73 29.691,4.6441 25.746,8.1441 L25.746,8.1441 Z" id="Shape"></path>
            <path d="M40,47.684 C33.8711,47.684 28.07,45.3246 23.664,41.0356 C23.4765,40.85591 23.37103,40.60591 23.37103,40.3481 C23.37103,40.09029 23.4765,39.84029 23.664,39.6606 C28.0702,35.3754 33.871,33.0122 40,33.0122 C46.129,33.0122 51.93,35.3716 56.336,39.6606 C56.5235,39.84029 56.62897,40.09029 56.62897,40.3481 C56.62897,40.60591 56.5235,40.85591 56.336,41.0356 C51.9298,45.3247 46.129,47.684 40,47.684 Z M25.746,40.3481 C29.6913,43.8481 34.7108,45.7622 40,45.7622 C45.2892,45.7622 50.312,43.8481 54.254,40.3481 C50.3126,36.8481 45.2892,34.934 40,34.934 C34.7108,34.934 29.691,36.8481 25.746,40.3481 L25.746,40.3481 Z" id="Shape"></path>
            <path d="M40,47.684 C34.6094,47.684 30.3828,37.387 30.3828,24.246 C30.3828,11.101 34.6094,0.808 40,0.808 C45.3906,0.808 49.6172,11.105 49.6172,24.246 C49.6172,37.387 45.3906,47.684 40,47.684 Z M40,2.731 C36.3633,2.731 32.3086,11.5669 32.3086,24.247 C32.3086,36.927 36.3633,45.763 40,45.763 C43.6367,45.763 47.6914,36.9271 47.6914,24.247 C47.6914,11.567 43.6367,2.731 40,2.731 Z" id="Shape"></path>
            <path d="M40,47.684 C39.46875,47.684 39.03906,47.25431 39.03906,46.72306 L39.03906,1.77006 C39.03906,1.23881 39.46875,0.80912 40,0.80912 C40.53125,0.80912 40.96094,1.23881 40.96094,1.77006 L40.96094,46.72306 C40.96094,47.25431 40.53125,47.684 40,47.684 Z" id="Path"></path>
            <path d="M62.477,25.207 L17.524,25.207 C16.99275,25.207 16.56306,24.77731 16.56306,24.24606 C16.56306,23.71481 16.99275,23.28512 17.524,23.28512 L62.477,23.28512 C63.00825,23.28512 63.43794,23.71481 63.43794,24.24606 C63.43794,24.77731 63.00825,25.207 62.477,25.207 Z" id="Path"></path>
            <path d="M44.574,70.219 L35.4295,70.219 C34.89825,70.219 34.46856,69.78931 34.46856,69.25806 C34.46856,68.72681 34.89825,68.29712 35.4295,68.29712 L44.574,68.29712 C45.10525,68.29712 45.53494,68.72681 45.53494,69.25806 C45.53494,69.78931 45.10525,70.219 44.574,70.219 Z" id="Path"></path>
        </g>
    </g>
</svg>