<?xml version="1.0" encoding="UTF-8"?>
<svg width="100px" height="96px" viewBox="0 0 100 96" version="1.1" xmlns="http://www.w3.org/2000/svg" xmlns:xlink="http://www.w3.org/1999/xlink">
    <!-- Generator: Sketch 61.2 (89653) - https://sketch.com -->
    <title>np_liberty-statue_85845_D11F0C</title>
    <desc>Created with Sketch.</desc>
    <g id="Page-1" stroke="none" stroke-width="1" fill="none" fill-rule="evenodd">
        <g id="np_liberty-statue_85845_D11F0C" fill="#D11F0C" fill-rule="nonzero">
            <path d="M99.957,48.254 C99.968719,48.214938 99.98825,48.179782 99.992157,48.13681 C99.996063,48.109466 99.984344,48.082122 99.984344,48.054779 C99.98825,48.023529 99.999969,47.996185 99.999969,47.968841 C99.996063,47.933685 99.980438,47.902435 99.972625,47.867281 C99.960907,47.789155 99.941375,47.714941 99.914031,47.644621 C99.8945,47.605559 99.878875,47.566496 99.855438,47.531341 C99.808563,47.44931 99.753878,47.379001 99.683558,47.312591 C99.66012,47.289153 99.636683,47.269622 99.609339,47.250091 C99.542933,47.195403 99.472619,47.152435 99.390589,47.117281 C99.335902,47.093843 99.281209,47.078218 99.226529,47.062593 C99.191373,47.054781 99.160123,47.035249 99.124969,47.027437 L74.140969,43.953237 C74.121438,43.375117 74.055032,42.800937 73.937849,42.238437 L97.843849,33.605637 C97.879005,33.593918 97.906349,33.566574 97.941505,33.547043 C98.004005,33.515793 98.058695,33.484543 98.113385,33.441573 C98.164166,33.402511 98.207135,33.359542 98.250105,33.308763 C98.293074,33.261888 98.32823,33.211107 98.359485,33.156423 C98.39074,33.101739 98.418079,33.047043 98.43761,32.984543 C98.457141,32.925949 98.472766,32.867353 98.484485,32.800953 C98.496204,32.734547 98.496204,32.668143 98.492298,32.601733 C98.488391,32.562671 98.504016,32.527515 98.496204,32.492363 C98.492298,32.461113 98.472766,32.437675 98.464954,32.410331 C98.457141,32.382987 98.461048,32.351737 98.453235,32.324394 C98.441516,32.289237 98.414172,32.2658 98.394641,32.230644 C98.363391,32.168144 98.332141,32.109554 98.289171,32.054864 C98.250109,32.004082 98.20714,31.961114 98.160261,31.918144 C98.113386,31.879081 98.066511,31.840019 98.011821,31.808764 C97.953227,31.773608 97.894631,31.746264 97.828231,31.726732 C97.773544,31.707201 97.722761,31.695482 97.664171,31.683764 C97.593859,31.672045 97.519641,31.672045 97.449331,31.675951 C97.414174,31.679858 97.379018,31.664232 97.343861,31.672045 L70.691861,36.265845 C69.910611,35.429905 69.008261,34.648645 68.004361,33.922045 L87.024361,15.957045 C87.047798,15.937514 87.055611,15.906264 87.075142,15.882826 C87.122017,15.832045 87.161079,15.777356 87.192332,15.718766 C87.223582,15.664078 87.250926,15.609386 87.270457,15.550796 C87.289988,15.488296 87.301707,15.429706 87.313426,15.363296 C87.321238,15.300796 87.329051,15.238296 87.325145,15.175796 C87.321238,15.113296 87.30952,15.054706 87.293895,14.992206 C87.27827,14.925799 87.258738,14.867206 87.227488,14.804706 C87.211864,14.777362 87.211864,14.746112 87.196238,14.718768 C87.176707,14.687518 87.141551,14.66408 87.12202,14.636737 C87.098582,14.609393 87.09077,14.574237 87.063426,14.542987 C87.043895,14.519549 87.012645,14.511737 86.993114,14.492206 C86.942332,14.44533 86.887644,14.410174 86.829054,14.375016 C86.77046,14.343766 86.719674,14.312516 86.657174,14.292985 C86.59858,14.273454 86.539984,14.261735 86.477484,14.253922 C86.411078,14.242204 86.348574,14.238297 86.286074,14.242204 C86.223574,14.24611 86.164984,14.257828 86.106384,14.273454 C86.039977,14.289078 85.977474,14.30861 85.914974,14.33986 C85.887631,14.351578 85.856381,14.355485 85.829037,14.367204 L59.575037,29.996204 C57.977337,29.550894 56.293837,29.214954 54.543837,28.996204 L50.993037,1.734204 C50.98913,1.710767 50.973505,1.691235 50.969599,1.667798 C50.953974,1.601391 50.930537,1.534988 50.903193,1.472488 C50.879755,1.413894 50.856318,1.363108 50.821161,1.312328 C50.782099,1.25764 50.73913,1.210768 50.688351,1.163888 C50.645382,1.12092 50.602413,1.077951 50.555541,1.046698 C50.500853,1.011542 50.442261,0.984198 50.379761,0.956854 C50.321167,0.933417 50.262571,0.906073 50.196171,0.894354 C50.172734,0.890448 50.153203,0.874823 50.125859,0.870917 C50.08289,0.863104 50.039921,0.882635 49.996949,0.882635 C49.95398,0.882635 49.911011,0.867011 49.868039,0.870917 C49.844601,0.874823 49.821163,0.890448 49.797726,0.894354 C49.735226,0.906073 49.680536,0.929511 49.621946,0.952948 C49.559446,0.984198 49.496946,1.011542 49.442256,1.050604 C49.395381,1.081854 49.360225,1.120917 49.317256,1.159984 C49.266475,1.210766 49.215696,1.25764 49.176636,1.316234 C49.145386,1.367016 49.121949,1.417794 49.098511,1.472484 C49.071167,1.534984 49.04773,1.601394 49.032105,1.671704 C49.028199,1.695141 49.012574,1.714673 49.008667,1.73811 L45.453967,29.00011 C43.703967,29.21495 42.020367,29.5548 40.422767,29.9962 L14.176767,14.3712 C14.149424,14.355575 14.118174,14.355575 14.09083,14.343856 C14.02833,14.312606 13.96583,14.293075 13.89942,14.27745 C13.83692,14.261825 13.77833,14.250106 13.71583,14.2462 C13.65333,14.242294 13.59083,14.250106 13.52833,14.257918 C13.46583,14.269637 13.40333,14.27745 13.34474,14.300887 C13.286146,14.320418 13.23146,14.347762 13.17677,14.379012 C13.118177,14.410262 13.06349,14.449325 13.01271,14.496202 C12.989272,14.515733 12.961929,14.523546 12.938491,14.546983 C12.911147,14.574327 12.903335,14.609483 12.879897,14.640733 C12.85646,14.671983 12.82521,14.691514 12.805679,14.722764 C12.790053,14.750108 12.790053,14.781358 12.774429,14.808702 C12.743179,14.871202 12.723647,14.933702 12.708022,15.000112 C12.692397,15.062612 12.680679,15.121202 12.676772,15.183702 C12.672866,15.250108 12.680679,15.312612 12.688491,15.375112 C12.696303,15.437612 12.708022,15.496202 12.727553,15.558702 C12.747085,15.617296 12.774429,15.671982 12.805679,15.726672 C12.840835,15.785266 12.875991,15.839952 12.922869,15.890732 C12.9424,15.914169 12.950213,15.941513 12.97365,15.964951 L31.99365,33.929951 C30.98975,34.656511 30.08745,35.437751 29.30615,36.273751 L2.66515,31.683951 C2.629994,31.676138 2.594838,31.687857 2.55968,31.687857 C2.485461,31.683951 2.41515,31.683951 2.34484,31.695669 C2.286246,31.703482 2.23156,31.719107 2.17687,31.738638 C2.11437,31.762076 2.05187,31.785513 1.99328,31.820669 C1.938592,31.851919 1.89172,31.887076 1.84484,31.926139 C1.797965,31.969108 1.754996,32.012077 1.71203,32.062859 C1.669061,32.117547 1.637811,32.172239 1.60656,32.234739 C1.590935,32.269895 1.563591,32.293333 1.547966,32.328489 C1.536247,32.355833 1.54406,32.387083 1.536247,32.414426 C1.528435,32.44177 1.508903,32.469114 1.504997,32.496458 C1.497185,32.53552 1.508903,32.570676 1.508903,32.605838 C1.504997,32.672244 1.504997,32.738648 1.516716,32.805058 C1.524529,32.867558 1.540153,32.926148 1.563591,32.988648 C1.583122,33.051148 1.610466,33.105838 1.641716,33.160528 C1.672966,33.215216 1.712029,33.265998 1.754996,33.312868 C1.797965,33.359743 1.840934,33.402712 1.891716,33.441778 C1.946403,33.484747 2.001096,33.515997 2.063596,33.547248 C2.098752,33.562873 2.12219,33.594123 2.157346,33.605842 L26.063346,42.238642 C25.946156,42.801142 25.879756,43.371442 25.860226,43.953442 L0.880226,47.023742 C0.852882,47.027648 0.829445,47.043273 0.798195,47.051085 C0.712258,47.06671 0.630225,47.090148 0.556005,47.133116 C0.516942,47.152648 0.485692,47.172179 0.450535,47.199523 C0.384128,47.246398 0.321625,47.297179 0.266945,47.355773 C0.231789,47.394835 0.200539,47.437804 0.173195,47.484683 C0.138039,47.543277 0.106789,47.601873 0.079445,47.668273 C0.056007,47.730773 0.044289,47.789363 0.03257,47.855773 C0.020851,47.894835 0.005226,47.929992 0.00132,47.969053 C0.00132,47.996397 0.013039,48.023741 0.013039,48.054991 C0.013039,48.082334 0.00132,48.109678 0.0052264,48.140928 C0.0091326,48.183897 0.0325704,48.219053 0.0442894,48.258118 C0.0599144,48.316712 0.0716334,48.367498 0.0950704,48.418278 C0.1224144,48.480778 0.1614764,48.539368 0.2005404,48.594058 C0.2317904,48.637027 0.2630404,48.683902 0.3021004,48.719058 C0.3528814,48.769839 0.4114804,48.804996 0.4700704,48.844058 C0.5169454,48.871402 0.5560084,48.902652 0.6028804,48.922183 C0.6770994,48.953433 0.7552204,48.969058 0.8333504,48.980777 C0.8724134,48.988589 0.9075694,49.00812 0.9466304,49.00812 L25.9266304,50.21122 C26.1219404,51.83232 26.6883504,53.39872 27.6375304,54.89482 C27.1297204,57.44952 26.3367304,59.95342 25.2703304,62.33232 C25.0711104,62.77373 25.2195494,63.29716 25.6218904,63.57062 L26.9421904,64.46515 L21.9148904,70.73465 L18.5710904,66.58235 C18.2234304,66.14876 17.5945304,66.08235 17.1648904,66.43001 C16.7352004,66.77767 16.6688004,67.40657 17.0125504,67.83621 L38.6885504,94.75021 C38.8877704,94.9963 39.1768304,95.1213 39.4658904,95.1213 C39.6846404,95.1213 39.9073004,95.050987 40.0948004,94.89864 C40.5244904,94.55098 40.5908904,93.92208 40.2471404,93.49244 L34.7198404,86.62914 L36.5050404,79.28534 C37.4972304,80.51584 38.6456404,81.59784 39.8448404,82.35564 C42.4776404,84.01974 46.1534404,85.79314 47.7823404,85.79314 L50.0011404,85.804859 L52.2159404,85.804859 C53.8448404,85.804859 57.5206404,84.035359 60.1534404,82.367359 C60.9425004,81.867359 61.7159404,81.222859 62.4307404,80.492359 L61.2862404,93.754359 C61.2393654,94.305139 61.6456204,94.789559 62.1964004,94.836359 C62.2237444,94.840265 62.2549944,94.840265 62.2823384,94.840265 C62.7979584,94.840265 63.2315584,94.445735 63.2784284,93.926205 L64.0948384,84.465305 L65.3526384,93.117605 C65.4229514,93.613695 65.8526384,93.973075 66.3409184,93.973075 C66.3877934,93.973075 66.4385744,93.969169 66.4854484,93.961357 C67.0323284,93.883231 67.4112284,93.375417 67.3331084,92.828557 L65.0323084,77.019557 C65.5908984,76.035177 66.0283984,75.031257 66.3018084,74.054757 C66.6377484,74.152413 66.9853984,74.203197 67.2744684,74.203197 C67.5908784,74.203197 67.8877484,74.109447 68.1494684,73.961007 L71.6377684,91.277007 C71.7354244,91.753567 72.1494884,92.081697 72.6182384,92.081697 C72.6846444,92.081697 72.7510484,92.073885 72.8174584,92.062166 C73.3604284,91.952786 73.7119884,91.425446 73.5987084,90.882466 L72.0714084,83.300466 L74.9542084,79.882466 C75.1495184,79.648096 75.2315484,79.335596 75.1690484,79.034806 L72.2667484,64.999806 L74.3683484,63.574006 C74.7706884,63.300566 74.9191284,62.777126 74.7199084,62.335706 C73.6574084,59.960706 72.8644084,57.460706 72.3527084,54.898206 C73.3019284,53.406006 73.8683084,51.835706 74.0636084,50.214606 L99.0436084,49.011506 C99.0826704,49.007599 99.1178274,48.988068 99.1568884,48.984162 C99.2350134,48.968537 99.3170484,48.956818 99.3873584,48.925568 C99.4381394,48.906037 99.4772014,48.870881 99.5240784,48.843537 C99.5826714,48.804475 99.6412684,48.769318 99.6920484,48.718537 C99.7311114,48.679475 99.7623614,48.636506 99.7936084,48.589627 C99.8326704,48.534939 99.8678274,48.480247 99.8990784,48.417747 C99.9303284,48.366966 99.9420464,48.312277 99.9576714,48.253687 L99.957,48.254 Z M50.961,43.8556 C50.945374,43.789193 50.937562,43.71888 50.910218,43.65638 C50.886781,43.597786 50.847718,43.55091 50.812562,43.49622 C50.777406,43.441532 50.746156,43.39075 50.699282,43.34388 C50.648501,43.289192 50.586002,43.254036 50.527402,43.21497 C50.484433,43.187626 50.44537,43.156376 50.394592,43.136845 C50.320373,43.105595 50.242252,43.08997 50.164122,43.078251 C50.12506,43.070438 50.089904,43.050907 50.046932,43.050907 C50.031307,43.050907 50.015682,43.05872 49.996151,43.05872 C49.980526,43.05872 49.964901,43.050907 49.949276,43.050907 C49.910213,43.054814 49.875057,43.070438 49.835996,43.078251 C49.750058,43.093876 49.668026,43.105595 49.589906,43.140751 C49.55475,43.156376 49.527406,43.179814 49.49225,43.199345 C49.418031,43.24622 49.34381,43.293095 49.28522,43.355595 C49.250064,43.390751 49.226626,43.43372 49.195376,43.472785 C49.152408,43.535285 49.109439,43.589975 49.082096,43.660285 C49.058659,43.718879 49.050846,43.781375 49.035221,43.847785 C49.023503,43.898567 49.000065,43.945441 48.996159,43.996225 L48.851629,46.972825 C47.589929,48.750125 45.132829,50.086125 42.050829,51.758025 L41.765669,51.914275 C35.566469,55.285375 31.011669,55.968975 29.945669,54.730675 C29.961295,53.500175 30.265979,52.308775 30.836299,51.187675 C30.867549,51.129081 30.914423,51.078295 30.937859,51.015795 C31.633169,49.718895 32.676159,48.523595 33.992559,47.457195 C34.000371,47.449383 34.008183,47.449383 34.015996,47.44157 C34.023809,47.433758 34.027715,47.422039 34.035527,47.418133 C34.765997,46.832193 35.574627,46.289233 36.461327,45.793133 C36.469139,45.789226 36.476951,45.78532 36.484764,45.781414 C36.48867,45.777508 36.48867,45.777508 36.492577,45.773602 C38.168377,44.840012 40.086377,44.066602 42.203477,43.519702 C42.219102,43.515796 42.238633,43.515796 42.254258,43.51189 C42.258164,43.51189 42.262071,43.507983 42.265977,43.504077 C44.644877,42.894697 47.254277,42.554857 49.992577,42.554857 C52.730877,42.554857 55.340277,42.894697 57.719177,43.504077 C57.723083,43.504077 57.726989,43.507983 57.726989,43.507983 C57.742615,43.51189 57.754333,43.51189 57.766052,43.515796 C59.887152,44.062676 61.809052,44.836096 63.488752,45.773596 C63.492659,45.777502 63.492659,45.777502 63.496565,45.781408 C63.504377,45.785314 63.51219,45.785314 63.516096,45.78922 C64.402816,46.28531 65.215296,46.82832 65.945796,47.41812 C65.953609,47.425932 65.957515,47.433745 65.965328,47.441557 C65.97314,47.44937 65.980953,47.44937 65.988765,47.453276 C67.305165,48.519676 68.352065,49.714976 69.047365,51.011876 C69.066896,51.070469 69.113771,51.121256 69.145021,51.175936 C69.715331,52.297036 70.023931,53.488436 70.039551,54.722836 C69.520021,55.324396 68.191851,55.461116 66.309051,55.093926 C64.059051,54.652516 61.187951,53.519726 58.219251,51.906426 L57.926281,51.746266 C54.848181,50.070466 52.395081,48.734566 51.133281,46.961066 L50.988751,43.984466 C50.996564,43.945403 50.973126,43.902435 50.961408,43.855556 L50.961,43.8556 Z M40.473,32.0396 C40.50425,32.031788 40.5355,32.023976 40.570656,32.012257 C43.433956,31.184137 46.629256,30.719257 50.000356,30.719257 C53.371456,30.719257 56.570656,31.184097 59.433956,32.016157 C59.465206,32.027876 59.496456,32.035688 59.527706,32.043501 C63.301106,33.149001 66.480806,34.891201 68.711306,37.039601 C68.703493,37.035695 68.691774,37.035695 68.687868,37.031789 C67.676168,36.234909 66.547268,35.508389 65.316768,34.855989 C65.262081,34.816926 65.215208,34.766145 65.148798,34.734899 C65.105829,34.715368 65.06286,34.719274 65.019888,34.707555 C63.808988,34.086465 62.500388,33.535655 61.117588,33.070855 C61.082431,33.055231 61.055088,33.027887 61.019931,33.016168 C60.988681,33.004449 60.957431,33.012262 60.926181,33.004449 C59.281681,32.465389 57.531681,32.039609 55.695681,31.754449 C55.683963,31.750543 55.672244,31.742731 55.660525,31.738824 C55.6449,31.734918 55.633181,31.742731 55.621463,31.742731 C53.816763,31.465391 51.937863,31.313041 50.004263,31.313041 C48.070663,31.313041 46.191763,31.465381 44.387063,31.742731 C44.371438,31.742731 44.359719,31.738824 44.348,31.738824 C44.336282,31.742731 44.324563,31.750543 44.312844,31.750543 C42.480844,32.035703 40.726944,32.461483 39.082344,33.000543 C39.051094,33.008355 39.019844,33.000543 38.984688,33.012262 C38.945625,33.023981 38.918282,33.051324 38.883128,33.066949 C37.500328,33.531789 36.195628,34.078649 34.984728,34.703649 C34.945665,34.715368 34.898791,34.715368 34.859728,34.730993 C34.797231,34.758336 34.750348,34.809118 34.695668,34.848183 C33.465168,35.500523 32.332368,36.230983 31.320668,37.027883 C31.312856,37.031789 31.305044,37.031789 31.297231,37.035695 C33.519931,34.887295 36.699531,33.145095 40.473031,32.039595 L40.473,32.0396 Z M70.227,49.1416 C70.102,48.9541 69.96919,48.77051 69.83247,48.58691 L72.11767,46.14551 C72.137201,46.3877 72.14892,46.63379 72.14892,46.87989 L72.14892,47.39161 L70.227,49.1416 Z M65.3793,44.6143 L68.4926,39.419 C68.97307,39.86431 69.41057,40.32916 69.8051,40.8096 L66.3793,45.2823 C66.05508,45.05574 65.72305,44.83308 65.3793,44.61433 L65.3793,44.6143 Z M62.4809,43.0752 L65.2075,37.0244 C65.81297,37.37596 66.3911,37.74706 66.9302,38.1377 L63.6372,43.626 C63.2622,43.4385 62.87548,43.25491 62.481,43.07522 L62.4809,43.0752 Z M55.2387,40.9775 L56.3364,33.8798 C57.4145,34.07511 58.4614,34.32121 59.4692,34.61418 L57.3559,41.38368 C56.66449,41.22743 55.9614,41.09071 55.2387,40.97743 L55.2387,40.9775 Z M36.3637,43.6298 L33.0707,38.1415 C33.60976,37.75088 34.1879,37.37978 34.7934,37.0282 L37.52,43.079 C37.12547,43.25478 36.73875,43.43838 36.3638,43.6298 L36.3637,43.6298 Z M33.6215,45.2821 L30.1957,40.8055 C30.59023,40.32503 31.02383,39.86409 31.5043,39.4188 L34.6176,44.6102 C34.27776,44.83286 33.94572,45.05551 33.62151,45.2821 L33.6215,45.2821 Z M27.8481,46.8798 C27.8481,46.63371 27.859819,46.38761 27.883256,46.14542 L30.168456,48.58682 C30.031736,48.77041 29.898926,48.95401 29.773926,49.14151 L27.848126,47.39151 L27.8481,46.8798 Z M31.4965,47.07902 L28.4301,43.80562 C28.59026,43.37984 28.78557,42.96187 29.01213,42.55172 L32.06683,46.54002 C31.86761,46.7158 31.68011,46.89549 31.49652,47.07908 L31.4965,47.07902 Z M39.3832,42.33293 L36.5707,36.09852 C37.23086,35.78993 37.9184,35.50086 38.6293,35.23914 L40.7074,41.89934 C40.25818,42.03606 39.81287,42.18059 39.3832,42.33293 L39.3832,42.33293 Z M42.6449,41.38768 L40.5316,34.61811 C41.5355,34.32514 42.5824,34.07905 43.6644,33.88373 L44.7621,40.98143 C44.03944,41.09081 43.3324,41.22752 42.6449,41.38768 L42.6449,41.38768 Z M46.7465,40.72357 L45.641,33.57515 C46.7348,33.43843 47.8558,33.3564 49.0004,33.32515 L49.0004,40.58295 C48.23868,40.606388 47.4848,40.653263 46.7465,40.72357 L46.7465,40.72357 Z M51.0004,33.32515 C52.1449,33.3564 53.266,33.43843 54.3598,33.57515 L53.2543,40.72355 C52.51602,40.653238 51.7621,40.60636 51.0004,40.58293 L51.0004,33.32515 Z M61.3674,35.23925 C62.08224,35.50097 62.7697,35.79003 63.4299,36.09863 L60.6174,42.33303 C60.18381,42.18069 59.73849,42.03225 59.2893,41.89944 L61.3674,35.23925 Z M70.9885,42.55175 C71.21506,42.96191 71.40647,43.37597 71.57053,43.80565 L68.50413,47.07905 C68.32054,46.89546 68.13304,46.71577 67.93382,46.53999 L70.9885,42.55175 Z M25.8475,48.21585 L12.7185,47.58304 L25.8475,45.96584 L25.8475,48.21585 Z M28.7811,50.93855 C28.63657,51.27058 28.50376,51.60652 28.39438,51.95025 C28.17954,51.36431 28.02719,50.77445 27.94126,50.17685 L28.7811,50.93855 Z M71.2191,50.93855 L72.05894,50.17293 C71.973002,50.77449 71.82456,51.36433 71.60582,51.94633 C71.50035,51.60649 71.36363,51.27055 71.2191,50.93853 L71.2191,50.93855 Z M74.1527,45.96585 L87.2817,47.58305 L74.1527,48.21586 L74.1527,45.96585 Z M86.5007,35.57085 L73.3557,40.31695 C73.03539,39.5357 72.62132,38.77785 72.1252,38.04745 L86.5007,35.57085 Z M79.0671,20.72285 L66.2821,32.80085 C65.0087,32.04694 63.6024,31.38675 62.1024,30.82425 L79.0671,20.72285 Z M50.0011,9.60585 L52.5011,28.80085 C51.68079,28.746163 50.8449,28.718819 50.0011,28.718819 C49.1573,28.718819 48.3214,28.746163 47.4972,28.80085 L50.0011,9.60585 Z M20.9351,20.72285 L37.9001,30.82085 C36.3962,31.38335 34.9939,32.04745 33.7204,32.79745 L20.9351,20.72285 Z M13.5015,35.57085 L27.8805,38.04745 C27.38441,38.77792 26.97034,39.53575 26.65,40.31695 L13.5015,35.57085 Z M28.6465,65.55085 C28.716813,66.45319 29.15431,67.79695 29.57228,68.69535 L30.09962,69.82425 C30.56056,70.80863 30.84962,71.89455 30.84962,72.21095 C30.84962,73.02345 31.31056,73.72655 31.97072,74.03515 L30.22852,81.05465 L23.20902,72.33985 L28.6465,65.55085 Z M34.9434,77.26985 L33.1426,84.67605 L31.7988,83.00805 L33.8847,74.61745 C34.16595,75.44557 34.54486,76.28545 35.0214,77.10965 C34.994057,77.160431 34.9589,77.21121 34.943275,77.26981 L34.9434,77.26985 Z M71.5764,80.79715 L69.6233,71.10965 C69.603768,71.00418 69.552987,70.91824 69.50611,70.8284 C69.61939,70.50418 69.7522,70.16043 69.90845,69.8245 L70.43579,68.6956 C70.56079,68.42607 70.6897,68.11357 70.80688,67.78544 L73.11938,78.96944 L71.5764,80.79715 Z M71.4514,63.14515 C70.0647,62.65687 68.6897,62.07095 67.3655,61.40295 C66.86941,61.14904 66.2717,61.352168 66.0217,61.84436 C65.7717,62.336552 65.970919,62.93816 66.46311,63.18816 C67.40842,63.66472 68.38501,64.0866 69.36931,64.48116 L69.36931,65.30928 C69.36931,65.696 69.08415,66.84838 68.61931,67.84838 L68.09197,68.97728 C67.63494,69.95775 67.174,71.34448 67.14666,72.19608 C66.93963,72.172643 66.74432,72.110143 66.72088,72.10233 L66.681818,72.063268 L67.338068,67.352368 C67.412286,66.805498 67.033378,66.297668 66.486508,66.223468 C65.931818,66.137531 65.431808,66.528158 65.357608,67.075028 L64.588078,72.586728 C64.205268,75.325028 61.685778,79.028128 59.088078,80.676528 C56.025578,82.614028 53.025578,83.801528 52.220878,83.801528 L50.002078,83.805435 L47.787278,83.805435 C46.982588,83.805435 43.982578,82.617935 40.920078,80.680435 C38.318478,79.035935 35.802878,75.328835 35.416178,72.590635 L34.646648,67.078935 C34.568523,66.532055 34.060708,66.145345 33.517748,66.227375 C32.970868,66.301594 32.588058,66.809405 32.666188,67.356275 L33.322438,72.067175 C33.259938,72.106238 33.056818,72.176555 32.845878,72.199985 C32.841972,71.399205 32.373218,69.977285 31.908378,68.977285 L31.381038,67.848385 C30.916198,66.848385 30.631038,65.696085 30.631038,65.309285 L30.631038,64.481165 C31.615418,64.086635 32.591938,63.664755 33.537238,63.188165 C34.029428,62.942075 34.228648,62.336605 33.978648,61.844365 C33.728648,61.352125 33.127088,61.152955 32.634848,61.402955 C31.314548,62.067015 29.943448,62.652955 28.548948,63.145155 L27.431748,62.387345 C28.201278,60.559245 28.818448,58.668545 29.283348,56.742845 C29.970848,57.129565 30.830248,57.309255 31.818548,57.309255 C34.838048,57.309255 39.002148,55.699855 42.724548,53.672555 L43.009708,53.520215 C45.990208,51.899115 48.427708,50.571015 49.998008,48.746815 C51.564408,50.567115 54.001908,51.895215 56.978508,53.516315 L57.271478,53.672565 C60.412078,55.383465 63.490278,56.586665 65.931678,57.067065 C66.783238,57.235035 67.517578,57.305345 68.158278,57.305345 C69.287178,57.305345 70.111378,57.078785 70.712978,56.742845 C71.181728,58.672545 71.798878,60.559245 72.564578,62.383445 L71.4514,63.14515 Z" id="Shape"></path>
            <path d="M55.262,74.48 C53.6565,73.63234 51.6722,73.54641 49.9964,74.24172 C48.3206,73.54641 46.3362,73.63625 44.7308,74.48 C44.24252,74.73781 44.05502,75.33938 44.30892,75.8316 C44.48861,76.17144 44.83626,76.36676 45.19564,76.36676 C45.35189,76.36676 45.51205,76.331603 45.66048,76.25348 C46.86358,75.62067 48.32848,75.61286 49.53938,76.233949 C49.82454,76.378479 50.16829,76.378479 50.45344,76.233949 C51.66044,75.612859 53.12144,75.616759 54.33234,76.25348 C54.82062,76.51129 55.42614,76.323793 55.68394,75.8316 C55.94175,75.34332 55.754252,74.7378 55.26206,74.48 L55.262,74.48 Z" id="Path"></path>
            <path d="M52.578,76.812 C52.519406,76.886219 52.47644,76.94872 52.45691,76.97606 C52.2616,77.054186 51.35531,77.054186 50.12101,77.054186 L49.87492,77.054186 C48.61712,77.050279 47.73432,77.054186 47.57022,76.991686 C47.515533,76.94481 47.47647,76.882306 47.41788,76.804186 C47.08194,76.366686 46.45304,76.284656 46.01558,76.620596 C45.57808,76.956536 45.49605,77.585436 45.83199,78.022896 C46.62105,79.050196 47.05859,79.069796 49.87889,79.050196 L50.12498,79.050196 L50.22654,79.050196 C52.95704,79.050196 53.39064,79.038477 54.16794,78.022896 C54.50388,77.585396 54.42185,76.956496 53.98435,76.620596 C53.54294,76.288566 52.91405,76.374506 52.57815,76.812006 L52.578,76.812 Z" id="Path"></path>
            <path d="M57.836,57.586 C56.2696,57.586 54.754,58.15241 53.5704,59.1837 C53.34774,59.37511 53.22274,59.65636 53.2265609,59.94542 C53.230557,60.23839 53.35946,60.51573 53.58212,60.70323 C54.96102,61.85943 56.70712,62.50013 58.50402,62.50013 C59.92202,62.50013 61.31652,62.10169 62.52742,61.34783 C62.77742,61.19549 62.94539,60.93767 62.98836,60.64861 C63.035235,60.35955 62.949298,60.06658 62.75789,59.84392 C61.51959,58.41032 59.72669,57.58612 57.83599,57.58612 L57.836,57.586 Z M56.0704,59.9454 C57.379,59.3829 58.9649,59.50399 60.1759,60.24228 C58.8321,60.66415 57.3321,60.55087 56.0704,59.9454 Z" id="Shape"></path>
            <path d="M46.52,60.535 C46.85594,61.05453 47.11375,61.7147 47.2075,62.4959 L47.71922,66.7576 C47.78172,67.26541 48.21141,67.64041 48.71141,67.64041 C48.750472,67.64041 48.789534,67.636504 48.8325,67.632597 C49.37938,67.566191 49.77,67.070097 49.7075,66.519297 L49.19578,62.257597 C48.84422,59.331797 46.82468,57.175597 44.59808,57.355297 L41.58638,57.589677 C41.543411,57.593583 41.508254,57.613114 41.46919,57.620927 C39.82859,57.788897 38.30509,58.577957 37.21139,59.843627 C37.01998,60.066287 36.93405,60.359247 36.98092,60.648317 C37.023889,60.937377 37.19576,61.195187 37.44186,61.347537 C38.65666,62.101447 40.05126,62.495937 41.46526,62.495937 C43.26216,62.495937 45.00826,61.859217 46.38716,60.699037 C46.445753,60.656068 46.477003,60.589657 46.51997,60.534977 L46.52,60.535 Z M39.7973,60.24203 C41.0082,59.50375 42.5903,59.38656 43.8989,59.94515 C42.6372,60.55062 41.1411,60.6639 39.7973,60.24203 Z" id="Shape"></path>
            <path d="M48.723,70.191 C47.96128,69.42928 47.3207,69.0426 46.8285,69.0426 C46.37538,69.0426 45.88709,69.23401 45.5902,69.53479 L45.39098,69.73401 C45.00036,70.12463 45.00426,70.75741 45.394886,71.14811 C45.781606,71.53483 46.410486,71.53483 46.797186,71.155922 C46.937806,71.261392 47.117496,71.417642 47.308906,71.605142 C47.426096,71.722332 48.484706,72.753542 49.402706,72.753542 L50.465206,72.753542 C51.383176,72.753542 52.441806,71.722342 52.559006,71.605142 C52.766036,71.398112 52.965256,71.234052 53.109786,71.124672 C53.422286,71.288732 53.812906,71.292642 54.121486,71.109047 C54.883206,70.648107 54.613676,69.784847 54.351956,68.944947 L53.980866,67.753547 C53.816806,67.226207 53.258206,66.933237 52.726966,67.097297 C52.199626,67.261357 51.906656,67.823857 52.070716,68.351197 L52.348056,69.241827 C51.992586,69.429327 51.590246,69.745737 51.144956,70.191047 C50.840266,70.495737 50.516046,70.694957 50.375426,70.753547 L49.484806,70.753547 C49.351996,70.694953 49.023866,70.491827 48.723086,70.191047 L48.723,70.191 Z" id="Path"></path>
        </g>
    </g>
</svg>